# xmcd
#
# Track frame offsets:
#	150
#	12888
#	23027
#	35341
#	49225
#	60978
#	71111
#	84575
#	99531
#	112227
#	121396
#	132978
#	145620
#	158606
#	171265
#	183893
#	194444
#	209476
#	222741
#	233662
#
# Disc length: 3267 seconds
#
# Revision: 1
# Processed by: cddbd v1.5.2PL0 Copyright (c) Steve Scherf et al.
# Submitted via: audiograbber 1.83.01
#
DISCID=1f0cc114
DTITLE=Various Artist - This is Country music
DYEAR=1900
DGENRE=
TTITLE0=Johhny Cash - Folsom prison blues
TTITLE1=Roger Miller - King of the road
TTITLE2=Hank Williams - Cold cold heart
TTITLE3=George jones - A good year for the roses
TTITLE4=Patsy Cline - A poor man's roses
TTITLE5=Loretta Lynn - You're looking at country
TTITLE6=Don Williams - Ruby tuesday
TTITLE7=Kenny Rogers - Heed the call
TTITLE8=Billie Jo Spears - What i've got in mind
TTITLE9=Frankie Laine - Rawhide
TTITLE10=Buck Owens - Foolin' around
TTITLE11=Jack Greene - Beautiful Lady
TTITLE12=Dolly Parton - Little blossom
TTITLE13=Kitty Wells - Making Believe
TTITLE14=Charley Pride - Help me make it through the night
TTITLE15=Don Gibson - Funny familar forgotten feelings
TTITLE16=Willie Nelson - Face of a fighter
TTITLE17=Dottie West - Divorce
TTITLE18=Johhny Cash - Cry cry cry
TTITLE19=Patsy Cline - Walkin' after midnight
EXTD=
EXTT0=
EXTT1=
EXTT2=
EXTT3=
EXTT4=
EXTT5=
EXTT6=
EXTT7=
EXTT8=
EXTT9=
EXTT10=
EXTT11=
EXTT12=
EXTT13=
EXTT14=
EXTT15=
EXTT16=
EXTT17=
EXTT18=
EXTT19=
PLAYORDER=
